<svg width="63" height="67" viewBox="0 0 63 67" fill="none" xmlns="http://www.w3.org/2000/svg">
<path d="M28.566 0.723996L22.014 0.567998C22.092 1.50399 21.936 2.908 21.858 4.312C21.702 6.028 21.468 8.056 21.234 10.318C19.44 10.396 17.724 10.396 15.93 10.396C12.576 10.396 5.79 9.85 3.06 9.382L3.216 15.232C6.414 15.466 12.498 15.778 15.852 15.778C17.412 15.778 18.972 15.778 20.61 15.7C20.298 19.366 19.908 23.266 19.752 27.166C8.988 32.158 0.252 42.376 0.252 52.438C0.252 59.068 4.308 62.266 9.456 62.266C13.746 62.266 18.426 60.55 22.716 57.976C23.106 59.536 23.496 61.018 23.964 62.344L29.58 60.628C28.956 58.678 28.332 56.572 27.708 54.31C34.338 48.694 40.656 40.036 45.102 28.96C52.356 31.066 56.334 36.37 56.334 42.298C56.334 52.438 47.598 59.692 33.48 61.174L36.834 66.4C54.93 63.514 62.34 53.842 62.34 42.61C62.34 34.03 56.568 26.854 46.818 24.28C46.818 24.124 46.896 24.046 46.896 23.968C47.286 22.72 47.988 20.614 48.456 19.522L42.294 17.962C42.216 19.288 41.826 21.316 41.436 22.486C41.358 22.798 41.28 23.032 41.202 23.266C40.266 23.188 39.33 23.188 38.316 23.188C34.338 23.188 29.58 23.89 25.212 25.138C25.446 21.862 25.68 18.586 26.07 15.544C35.586 15.076 45.96 13.984 54.15 12.58L54.072 6.808C46.116 8.68 36.6 9.694 26.694 10.162C27.006 7.9 27.318 5.872 27.63 4.234C27.864 3.142 28.176 1.738 28.566 0.723996ZM24.978 33.796C24.978 32.704 24.978 31.69 25.056 30.598C28.644 29.272 33.168 28.102 38.238 28.102C38.706 28.102 39.174 28.102 39.564 28.102C36.288 36.838 31.53 43.156 26.304 48.07C25.524 43.546 24.978 38.788 24.978 33.796ZM6.18 51.424C6.18 45.028 11.952 37.306 19.518 33.016C19.518 33.484 19.518 33.952 19.518 34.42C19.518 40.27 20.298 46.588 21.39 52.126C17.412 54.934 13.668 56.26 10.626 56.26C7.662 56.26 6.18 54.622 6.18 51.424Z" fill="#5C657C"/>
</svg>
