<svg width="359" height="359" viewBox="0 0 359 359" fill="none" xmlns="http://www.w3.org/2000/svg">
<g filter="url(#filter0_d_86_1985)">
<rect x="12.3254" y="12.3019" width="335.431" height="335.431" rx="34.6998" fill="#625CBC" stroke="#A7A2FC" stroke-width="23.1332"/>
<path d="M178.884 91.0102L153.419 90.4226C153.615 93.7526 153.223 98.4539 153.027 102.176C152.635 105.506 152.244 109.032 151.852 112.754C149.305 112.754 146.759 112.754 144.017 112.754C132.067 112.754 114.83 111.186 107.974 110.011L108.561 132.734C117.768 133.126 133.047 133.909 143.233 133.909C145.388 133.909 147.347 133.909 149.501 133.909C148.718 141.941 148.13 150.168 147.738 158.591C120.314 171.519 99.5505 197.768 99.5505 223.037C99.5505 242.822 111.695 251.441 125.995 251.441C136.377 251.441 146.759 248.306 156.357 243.605C157.141 246.348 158.12 249.09 158.904 251.637L181.431 244.781C179.864 240.079 178.297 235.182 176.925 230.285C191.813 217.944 207.484 197.376 218.061 170.736C231.577 176.025 238.433 186.407 238.433 198.16C238.433 217.357 223.154 236.553 185.348 240.667L198.277 261.235C246.465 253.987 262.723 227.151 262.723 199.335C262.723 176.612 247.64 158.787 224.917 151.343C226.093 147.621 227.66 143.508 228.443 141.353L204.545 135.672C204.349 138.61 203.566 143.508 202.782 147.425C201.607 147.425 200.432 147.425 199.256 147.425C189.658 147.425 179.472 148.797 170.069 150.951C170.265 145.075 170.853 139.002 171.441 133.126C195.534 132.146 221.783 129.796 240.98 126.27L240.784 103.547C219.237 108.64 198.081 111.186 174.183 112.166C174.771 108.248 175.554 104.722 176.142 101.392C176.925 98.4539 177.709 94.9279 178.884 91.0102ZM122.665 217.944C122.665 206.779 132.459 191.891 147.151 181.901C147.542 195.417 149.11 208.933 151.264 221.078C144.212 225.192 137.161 227.543 131.676 227.543C125.407 227.543 122.665 224.213 122.665 217.944ZM169.286 172.303V171.715C176.925 169.365 185.936 167.602 196.318 167.406C189.658 183.272 180.843 195.221 171.636 204.82C170.069 195.026 169.286 184.252 169.286 172.303Z" fill="white"/>
</g>
<defs>
<filter id="filter0_d_86_1985" x="0.758789" y="0.735352" width="404.831" height="404.831" filterUnits="userSpaceOnUse" color-interpolation-filters="sRGB">
<feFlood flood-opacity="0" result="BackgroundImageFix"/>
<feColorMatrix in="SourceAlpha" type="matrix" values="0 0 0 0 0 0 0 0 0 0 0 0 0 0 0 0 0 0 127 0" result="hardAlpha"/>
<feOffset dx="23.1332" dy="23.1332"/>
<feGaussianBlur stdDeviation="11.5666"/>
<feColorMatrix type="matrix" values="0 0 0 0 0.0973366 0 0 0 0 0.061493 0 0 0 0 0.670833 0 0 0 0.05 0"/>
<feBlend mode="normal" in2="BackgroundImageFix" result="effect1_dropShadow_86_1985"/>
<feBlend mode="normal" in="SourceGraphic" in2="effect1_dropShadow_86_1985" result="shape"/>
</filter>
</defs>
</svg>
