<svg width="359" height="359" viewBox="0 0 359 359" fill="none" xmlns="http://www.w3.org/2000/svg">
<g filter="url(#filter0_d_86_1985)">
<rect x="12.3254" y="12.3019" width="335.431" height="335.431" rx="34.6998" fill="#6F66FF" stroke="#A7A2FC" stroke-width="23.1332"/>
<path d="M139.641 157.686H229.945V177.862H139.641V157.686ZM104.578 201.564H279.896V223.308H104.578V201.564ZM179.994 189.028H204.088V249.556C204.088 261.701 201.15 267.774 191.747 271.3C182.54 274.434 170.004 274.826 153.353 274.826C151.786 268.165 147.477 258.175 143.755 252.103C156.292 252.495 170.983 252.495 174.901 252.495C178.819 252.495 179.994 251.515 179.994 248.773V189.028ZM222.305 157.686H228.182L233.079 156.511L247.966 167.872C234.45 182.368 215.057 197.647 195.861 206.853C193.118 202.936 186.85 196.471 183.324 193.337C198.407 185.502 215.057 171.594 222.305 161.995V157.686ZM106.928 121.839H277.741V169.831H254.43V142.603H129.064V169.831H106.928V121.839ZM242.677 92.0642L268.142 99.5079C259.132 112.436 248.946 125.757 240.914 134.376L221.718 127.324C229.161 117.725 237.976 103.034 242.677 92.0642ZM120.053 101.663L140.033 92.6519C147.085 100.291 154.92 110.869 158.055 118.509L136.703 128.303C133.961 121.055 126.713 109.89 120.053 101.663ZM169.416 97.3531L190.18 89.5177C196.448 98.1367 203.108 110.086 205.655 117.921L183.324 126.54C181.365 118.705 175.293 106.364 169.416 97.3531Z" fill="white"/>
</g>
<defs>
<filter id="filter0_d_86_1985" x="0.758789" y="0.735352" width="404.831" height="404.831" filterUnits="userSpaceOnUse" color-interpolation-filters="sRGB">
<feFlood flood-opacity="0" result="BackgroundImageFix"/>
<feColorMatrix in="SourceAlpha" type="matrix" values="0 0 0 0 0 0 0 0 0 0 0 0 0 0 0 0 0 0 127 0" result="hardAlpha"/>
<feOffset dx="23.1332" dy="23.1332"/>
<feGaussianBlur stdDeviation="11.5666"/>
<feColorMatrix type="matrix" values="0 0 0 0 0.0973366 0 0 0 0 0.061493 0 0 0 0 0.670833 0 0 0 0.05 0"/>
<feBlend mode="normal" in2="BackgroundImageFix" result="effect1_dropShadow_86_1985"/>
<feBlend mode="normal" in="SourceGraphic" in2="effect1_dropShadow_86_1985" result="shape"/>
</filter>
</defs>
</svg>
