<svg width="58" height="59" viewBox="0 0 58 59" fill="none" xmlns="http://www.w3.org/2000/svg">
<path fill-rule="evenodd" clip-rule="evenodd" d="M25.3585 4.31748L3.20895 21.259C2.8245 21.5541 2.6001 21.9968 2.6001 22.4644V54.3466C2.6001 55.2056 3.3393 55.9 4.2501 55.9H19.1001C20.0109 55.9 20.7501 55.2056 20.7501 54.3466V40.3659C20.7501 39.5084 21.4893 38.8125 22.4001 38.8125H35.6001C36.5109 38.8125 37.2501 39.5084 37.2501 40.3659V54.3466C37.2501 55.2056 37.9893 55.9 38.9001 55.9H53.7501C54.6609 55.9 55.4001 55.2056 55.4001 54.3466V22.4644C55.4001 21.9968 55.1757 21.5541 54.7912 21.259L32.6416 4.31748C30.5197 2.69417 27.4804 2.69417 25.3585 4.31748Z" stroke="#5C657C" stroke-width="4.62"/>
</svg>
