<svg width="111" height="111" viewBox="0 0 111 111" fill="none" xmlns="http://www.w3.org/2000/svg">
<circle cx="55.5" cy="55.25" r="55.25" fill="#686BFF" fill-opacity="0.2"/>
<path d="M78.25 58.2969V56.7734C78.25 46.1069 68.9938 37.5361 58.0763 38.5778C51.8144 39.175 46.4659 43.1342 43.6377 48.6225C42.8633 47.1692 41.6269 45.9856 40.0975 45.2838L42.8273 38.3861C42.8873 38.3884 42.9473 38.3906 43.0078 38.3906C45.5279 38.3906 47.5781 36.3404 47.5781 33.8203C47.5781 31.3002 45.5279 29.25 43.0078 29.25C40.4877 29.25 38.4375 31.3002 38.4375 33.8203C38.4375 35.1884 39.0425 36.417 39.998 37.2554L37.0952 44.5902C36.9747 44.5872 36.8537 44.5872 36.7327 44.5898L33.8301 37.2554C34.7856 36.4171 35.3906 35.1884 35.3906 33.8203C35.3906 31.3002 33.3404 29.25 30.8203 29.25C28.3002 29.25 26.25 31.3002 26.25 33.8203C26.25 36.395 28.3935 38.4884 31.0008 38.3861L33.7333 45.2909C31.1069 46.5479 29.2969 49.3691 29.2969 52.5291V67.4375C29.2969 75.0538 35.4476 81.25 43.0078 81.25H76.7266C77.5679 81.25 78.25 80.5679 78.25 79.7266C78.25 77.4037 77.4569 75.0897 76.0168 73.211C75.173 72.1101 74.1259 71.1826 72.9554 70.4788C76.2134 67.4215 78.25 63.0913 78.25 58.2969ZM43.0078 32.2969C43.8478 32.2969 44.5312 32.9803 44.5312 33.8203C44.5312 34.6603 43.8478 35.3438 43.0078 35.3438C42.1678 35.3438 41.4844 34.6603 41.4844 33.8203C41.4844 32.9803 42.1678 32.2969 43.0078 32.2969ZM30.8203 35.3438C29.9803 35.3438 29.2969 34.6603 29.2969 33.8203C29.2969 32.9803 29.9803 32.2969 30.8203 32.2969C31.6603 32.2969 32.3438 32.9803 32.3438 33.8203C32.3438 34.6603 31.6603 35.3438 30.8203 35.3438ZM75.042 78.2031H43.0078C37.1276 78.2031 32.3438 73.3737 32.3438 67.4375V52.5291C32.3438 50.1257 33.9738 48.048 36.1353 47.6964C39.0515 47.2225 41.4844 49.4636 41.4844 52.2031C41.4844 53.4809 41.4844 62.3228 41.4844 64.3906C41.4844 68.5907 44.9014 72.0078 49.1016 72.0078H52.3024C52.4271 72.0078 52.5476 71.9912 52.6636 71.9629C55.0442 73.8943 58.0833 75.0547 61.3906 75.0547C64.6471 75.0547 67.6903 74.1312 70.2708 72.5353C72.688 73.4933 74.5076 75.6854 75.042 78.2031ZM61.3906 72.0078C55.4545 72.0078 50.625 67.2239 50.625 61.3438V58.8145C50.625 54.5462 53.9028 50.9017 57.9318 50.6905C62.3207 50.4595 65.9609 53.9365 65.9609 58.2965V59.8203C65.9609 61.5004 64.5941 62.8672 62.9141 62.8672C61.234 62.8672 59.8672 61.5004 59.8672 59.8203V58.2969C59.8672 57.4555 59.1851 56.7734 58.3438 56.7734C57.5024 56.7734 56.8203 57.4555 56.8203 58.2969V59.8203C56.8203 63.1804 59.554 65.9141 62.9141 65.9141C66.2742 65.9141 69.0078 63.1804 69.0078 59.8203V58.2966C69.0078 52.1892 63.9071 47.3262 57.7724 47.6478C51.9814 47.9514 47.5781 53.0887 47.5781 58.8146V61.3438C47.5781 64.1602 48.4386 66.7808 49.9115 68.9609H49.1016C46.5815 68.9609 44.5312 66.9107 44.5312 64.3906C44.5312 63.6976 44.5312 58.1698 44.5312 57.4935C44.5312 49.3272 50.608 42.3506 58.3656 41.6109C67.6195 40.7287 75.2031 48.0231 75.2031 56.7734V58.2969C75.2031 65.9018 68.9601 72.0078 61.3906 72.0078Z" fill="#686C80"/>
<path d="M36.9141 53.7266C37.7554 53.7266 38.4375 53.0445 38.4375 52.2031C38.4375 51.3618 37.7554 50.6797 36.9141 50.6797C36.0727 50.6797 35.3906 51.3618 35.3906 52.2031C35.3906 53.0445 36.0727 53.7266 36.9141 53.7266Z" fill="#686C80"/>
</svg>
