<svg width="359" height="359" viewBox="0 0 359 359" fill="none" xmlns="http://www.w3.org/2000/svg">
<rect x="12.007" y="11.5842" width="335.431" height="335.431" rx="34.6998" fill="#444089" stroke="#A7A2FC" stroke-width="23.1332"/>
<path d="M244.775 115.168L228.713 103.219C224.795 104.59 216.959 105.765 208.536 105.765H139.389C133.512 105.765 121.563 105.178 116.274 104.394V132.21C120.388 132.014 131.161 130.839 139.389 130.839H205.794C201.484 144.747 189.535 164.139 176.607 178.831C158.194 199.399 127.831 223.297 96.2938 235.05L116.47 256.206C143.306 243.473 169.359 223.101 190.123 201.162C208.536 218.987 226.754 238.968 239.486 256.597L261.817 237.205C250.26 223.101 226.558 198.028 207.165 181.181C220.289 163.552 231.259 142.592 237.919 127.313C239.682 123.395 243.208 117.323 244.775 115.168Z" fill="white"/>
</svg>
