<svg width="70" height="69" viewBox="0 0 70 69" fill="none" xmlns="http://www.w3.org/2000/svg">
<path fill-rule="evenodd" clip-rule="evenodd" d="M46.1659 36.4691C50.9904 38.1339 55.4123 40.884 59.1274 44.5989C65.5695 51.0414 69.1175 59.6068 69.1175 68.7176H63.788C63.788 52.8486 50.8777 39.9383 35.0087 39.9383C19.1397 39.9383 6.2294 52.8486 6.2294 68.7176H0.899902C0.899902 59.6068 4.44788 51.0414 10.8902 44.5989C14.6052 40.884 19.0271 38.1339 23.8517 36.4691C18.6843 32.9102 15.2896 26.954 15.2896 20.2192C15.2896 9.34604 24.1356 0.5 35.0087 0.5C45.8818 0.5 54.7279 9.34604 54.7279 20.2192C54.7279 26.954 51.3331 32.9102 46.1659 36.4691ZM20.6194 20.2191C20.6194 28.1537 27.0747 34.6088 35.0091 34.6088C42.9435 34.6088 49.3987 28.1537 49.3987 20.2191C49.3987 12.2846 42.9435 5.82947 35.0091 5.82947C27.0747 5.82947 20.6194 12.2846 20.6194 20.2191Z" fill="#5C657C"/>
</svg>
