<svg width="111" height="111" viewBox="0 0 111 111" fill="none" xmlns="http://www.w3.org/2000/svg">
<circle cx="55.75" cy="55.25" r="55.25" fill="#686BFF" fill-opacity="0.2"/>
<path d="M62.385 26.2041C61.6687 25.8624 60.8248 25.953 60.2073 26.4511L40.1838 42.4691H30.6167C28.3484 42.4691 26.5 44.3175 26.5 46.5857V63.0524C26.5 65.3248 28.3484 67.1691 30.6167 67.1691H40.1838L60.2032 83.187C60.5778 83.4834 61.0347 83.6357 61.4917 83.6357C61.7963 83.6357 62.1009 83.5658 62.385 83.4299C63.0972 83.0882 63.55 82.3678 63.55 81.5774V28.0607C63.55 27.2703 63.0972 26.5499 62.385 26.2041Z" fill="#686C80"/>
<path d="M73.9697 40.262C73.1587 39.4634 71.8578 39.4757 71.0592 40.2785C70.2606 41.0895 70.2688 42.3903 71.0757 43.1931C74.1879 46.2641 75.9004 50.3931 75.9004 54.8185C75.9004 59.244 74.1879 63.373 71.0757 66.444C70.2688 67.2385 70.2606 68.5435 71.0592 69.3545C71.4626 69.762 71.9937 69.9638 72.5206 69.9638C73.0434 69.9638 73.5662 69.7662 73.9697 69.3668C77.8723 65.526 80.0171 60.3555 80.0171 54.8185C80.0171 49.2816 77.8723 44.1111 73.9697 40.262Z" fill="#686C80"/>
<path d="M79.7778 34.4622C78.9668 33.6595 77.6659 33.6677 76.8632 34.4746C76.0645 35.2814 76.0728 36.5864 76.8755 37.385C81.5562 42.0245 84.1332 48.216 84.1332 54.8191C84.1332 61.4223 81.5562 67.6096 76.8755 72.2491C76.0728 73.0518 76.0645 74.3568 76.8632 75.1637C77.2707 75.5671 77.7976 75.7688 78.3246 75.7688C78.8474 75.7688 79.3743 75.5712 79.7778 75.1719C85.2447 69.7585 88.2499 62.5296 88.2499 54.8191C88.2499 47.1086 85.2447 39.8797 79.7778 34.4622Z" fill="#686C80"/>
</svg>
